{"title":"Winter s Bone (2011)(Nu in Bios)(divx)(nl subs) RETAIL TBS","uid":6115203,"size":1006096344,"categoryP":"video","categoryS":"movies","magnet":"?xt=urn:btih:68c2902b78f4059a773c22795512050b58a0350c&amp;dn=Winter+s+Bone+%282011%29%28Nu+in+Bios%29%28divx%29%28nl+subs%29+RETAIL+TBS&amp;tr=udp%3A%2F%2Ftracker.openbittorrent.com%3A80&amp;tr=udp%3A%2F%2Fopen.demonii.com%3A1337&amp;tr=udp%3A%2F%2Ftracker.coppersurfer.tk%3A6969&amp;tr=udp%3A%2F%2Fexodus.desync.com%3A6969","seeders":1,"leechers":0,"uploader":"BlackSam.","files":-1,"time":1295522420,"description":"Winter's Bone (2011)(divx)(nl subs) TBS\n\n*****NOw in the Cinema*****\n***Momenteel te zien in de bioscoop*** \n \n\n\nVerenigde Staten\nDrama / Mystery\n100 minuten\n\ngeregisseerd door Debra Granik\nmet Jennifer Lawrence, John Hawkes en Lauren Sweetser\n\nDe 17-jarige Ree woont samen met haar broertje, zusje en zieke moeder, voor wie zij zorgt, in het ruige Ozark berggebied. Wanneer zij hoort dat haar \ncriminele vader hun huis als borg heeft opgegeven om onder zijn gevangenisstraf uit te komen, en vervolgens is verdwenen, besluit ze hem te gaan zoeken. Met \ngevaar voor eigen leven begint Ree een zoektocht langs leugens en bedreigingen van verre familieleden om zo de waarheid achter haar vaders geheimen te \nachterhalen.\n\nStoryline\n\nWith an absent father and a withdrawn and depressed mother, 17 year-old Ree Dolly keeps her family together in a dirt poor rural area. She's taken aback \nhowever when the local Sheriff tells her that her father put up their house as collateral for his bail and unless he shows up for his trial in a week's time, \nthey will lose it all. She knows her father is involved in the local drug trade and manufactures crystal meth, but everywhere she goes the message is the \nsame: stay out of it and stop poking your nose in other people's business. She refuses to listen, even after her father's brother, Teardrop, tells her he's \nprobably been killed. She pushes on, putting her own life in danger, for the sake of her family until the truth, or enough of it, is revealed\n\n\nGeneral INFO\n\nFormat                           : AVI\nFormat/Info                      : Audio Video Interleave\nFile size                        : 959 MiB\nDuration                         : 1h 40mn\nOverall bit rate                 : 1 338 Kbps\n\nVideo\nID                               : 0\nFormat                           : MPEG-4 Visual\nFormat profile                   : Simple@L3\nFormat settings, BVOP            : No\nFormat settings, QPel            : No\nFormat settings, GMC             : No warppoints\nFormat settings, Matrix          : Default (H.263)\nCodec ID                         : XVID\nCodec ID/Hint                    : XviD\nDuration                         : 1h 40mn\nBit rate                         : 1 196 Kbps\nWidth                            : 720 pixels\nHeight                           : 400 pixels\nDisplay aspect ratio             : 16:9\nFrame rate                       : 29.970 fps\nColor space                      : YUV\nChroma subsampling               : 4:2:0\nBit depth                        : 8 bits\nScan type                        : Progressive\nBits/(Pixel*Frame)               : 0.139\nStream size                      : 858 MiB (89%)\nWriting library                  : Magic0432\n\nAudio\nID                               : 1\nFormat                           : MPEG Audio\nFormat version                   : Version 1\nFormat profile                   : Layer 3\nMode                             : Joint stereo\nCodec ID                         : 55\nCodec ID/Hint                    : MP3\nDuration                         : 1h 40mn\nBit rate mode                    : Constant\nBit rate                         : 128 Kbps\nChannel(s)                       : 2 channels\nSampling rate                    : 48.0 KHz\nStream size                      : 91.7 MiB (10%)\nAlignment                        : Aligned on interleaves\nInterleave, duration             : 24 ms (0.72 video frame)\nWriting library                  : LAME3.97\n\n\nCategorie : Beeld \nFormaat : DivX\nCover : Yes meegepost\njaar uitgave : 2010 \nBron : Retail\nOndertitels : Nederlands (ingebakken)\nThanks: abee60  \n \n &lt;a href=&quot;\nhttp://www.moviemeter.nl/film/63615&quot; rel=&quot;nofollow&quot; target=&quot;_NEW&quot;&gt;\nhttp://www.moviemeter.nl/film/63615&lt;/a&gt;  &lt;a href=&quot;\nhttp://www.imdb.com/title/tt1399683&quot; rel=&quot;nofollow&quot; target=&quot;_NEW&quot;&gt;\nhttp://www.imdb.com/title/tt1399683&lt;/a&gt; \n\n\nBlack-Sam ","torrent":{"xt":"urn:btih:68c2902b78f4059a773c22795512050b58a0350c","amp;dn":"Winter+s+Bone+%282011%29%28Nu+in+Bios%29%28divx%29%28nl+subs%29+RETAIL+TBS","amp;tr":["udp%3A%2F%2Ftracker.openbittorrent.com%3A80","udp%3A%2F%2Fopen.demonii.com%3A1337","udp%3A%2F%2Ftracker.coppersurfer.tk%3A6969","udp%3A%2F%2Fexodus.desync.com%3A6969"],"infoHash":"68c2902b78f4059a773c22795512050b58a0350c","infoHashBuffer":{"type":"Buffer","data":[104,194,144,43,120,244,5,154,119,60,34,121,85,18,5,11,88,160,53,12]},"announce":[],"urlList":[]}}